<?xml version="1.0" encoding="UTF-8"?>
<svg xmlns="http://www.w3.org/2000/svg" viewBox="216 126 469.46666717529297 498">
  <defs><style type="text/css"><![CDATA[
@font-face { font-family: Inter; src: url("../media/2c55a0e60120577a-s.0bjc5tiuqdqro.woff2") format("woff2"); font-style: normal; font-weight: 100 900; font-display: swap; unicode-range: U+460-52F, U+1C80-1C8A, U+20B4, U+2DE0-2DFF, U+A640-A69F, U+FE2E-FE2F; }
@font-face { font-family: Inter; src: url("../media/9c72aa0f40e4eef8-s.0m6w47a4e5dy9.woff2") format("woff2"); font-style: normal; font-weight: 100 900; font-display: swap; unicode-range: U+301, U+400-45F, U+490-491, U+4B0-4B1, U+2116; }
@font-face { font-family: Inter; src: url("../media/ad66f9afd8947f86-s.11u06r12fd6v_.woff2") format("woff2"); font-style: normal; font-weight: 100 900; font-display: swap; unicode-range: U+1F00-1FFF; }
@font-face { font-family: Inter; src: url("../media/5476f68d60460930-s.0wxq9webf.ew4.woff2") format("woff2"); font-style: normal; font-weight: 100 900; font-display: swap; unicode-range: U+370-377, U+37A-37F, U+384-38A, U+38C, U+38E-3A1, U+3A3-3FF; }
@font-face { font-family: Inter; src: url("../media/2bbe8d2671613f1f-s.067x_6k0k23tk.woff2") format("woff2"); font-style: normal; font-weight: 100 900; font-display: swap; unicode-range: U+102-103, U+110-111, U+128-129, U+168-169, U+1A0-1A1, U+1AF-1B0, U+300-301, U+303-304, U+308-309, U+323, U+329, U+1EA0-1EF9, U+20AB; }
@font-face { font-family: Inter; src: url("../media/1bffadaabf893a1e-s.16ipb6fqu393i.woff2") format("woff2"); font-style: normal; font-weight: 100 900; font-display: swap; unicode-range: U+100-2BA, U+2BD-2C5, U+2C7-2CC, U+2CE-2D7, U+2DD-2FF, U+304, U+308, U+329, U+1D00-1DBF, U+1E00-1E9F, U+1EF2-1EFF, U+2020, U+20A0-20AB, U+20AD-20C0, U+2113, U+2C60-2C7F, U+A720-A7FF; }
@font-face { font-family: Inter; src: url("../media/83afe278b6a6bb3c-s.p.0q-301v4kxxnr.woff2") format("woff2"); font-style: normal; font-weight: 100 900; font-display: swap; unicode-range: U+0-FF, U+131, U+152-153, U+2BB-2BC, U+2C6, U+2DA, U+2DC, U+304, U+308, U+329, U+2000-206F, U+20AC, U+2122, U+2191, U+2193, U+2212, U+2215, U+FEFF, U+FFFD; }
]]></style></defs>
  <path d="M 660 150 L 621.8181818181818 150 L 583.6363636363637 150 L 545.4545454545455 150 L 507.2727272727272 150 L 469.0909090909091 150 L 430.9090909090909 150 L 392.72727272727275 150 L 354.54545454545456 150 L 316.3636363636363 180 L 278.18181818181813 210 L 240 240 L 240 270 L 240 300 L 240 330 L 240 360 L 240 390 L 240 420 L 240 450 L 240 480 L 240 510 L 278.18181818181813 540 L 316.3636363636363 570 L 354.54545454545456 600 L 392.72727272727275 600 L 430.9090909090909 600 L 469.0909090909091 600 L 507.2727272727272 600 L 545.4545454545455 600 L 583.6363636363637 600 L 621.8181818181818 600 L 660 600 L 660 570 L 660 540 L 621.8181818181818 540 L 583.6363636363637 540 L 545.4545454545455 540 L 507.2727272727272 540 L 430.9090909090909 540 L 392.72727272727275 540 L 354.54545454545456 510 L 316.3636363636363 480 L 316.3636363636363 450 L 316.3636363636363 390 L 316.3636363636363 360 L 316.3636363636363 330 L 316.3636363636363 300 L 316.3636363636363 270 L 354.54545454545456 240 L 392.72727272727275 210 L 430.9090909090909 210 L 469.0909090909091 210 L 507.2727272727272 210 L 545.4545454545455 210 L 583.6363636363637 210 L 621.8181818181818 210 L 660 210 L 660 180 L 660 150" fill="none" stroke="#ff7800" stroke-width="10" stroke-linejoin="round" stroke-linecap="round" /><g transform="translate(392.1334712897346 451.90244673432426) rotate(0)"><text x="0" y="82" font-family="Inter, ui-sans-serif, system-ui, sans-serif" font-size="112.1683684358546" fill="#3584e4" font-weight="700" xml:space="preserve">H</text></g><g transform="translate(472.3668010626838 451.90244673432426) rotate(0)"><text x="0" y="82.5" font-family="Inter, ui-sans-serif, system-ui, sans-serif" font-size="112.1683684358546" fill="#3584e4" font-weight="700" xml:space="preserve">P</text></g><g transform="translate(540.9001338873909 452.9024467343243) rotate(0)"><text x="0" y="82" font-family="Inter, ui-sans-serif, system-ui, sans-serif" font-size="112.1683684358546" fill="#3584e4" font-weight="700" xml:space="preserve">I</text></g><g transform="translate(588.1333312988281 451.90244673432426) rotate(0)"><text x="0" y="83.5" font-family="Inter, ui-sans-serif, system-ui, sans-serif" font-size="112.1683684358546" fill="#3584e4" font-weight="700" xml:space="preserve">S</text></g>
</svg>